<svg xmlns="http://www.w3.org/2000/svg" xmlns:xlink="http://www.w3.org/1999/xlink" x="0" y="0" width="702" height="570" style="
        width:702px;
        height:570px;
        background: #FFF;
        fill: none;
">
        
        
        <svg xmlns="http://www.w3.org/2000/svg" class="role-diagram-draw-area" style="overflow: visible;"><g class="shapes-region" style="stroke: black; fill: none;"><g class="arrow-line"><path class="connection real" stroke-dasharray="" d="  M310.05,51 L310.05,126.5" style="stroke: rgb(0, 0, 0); stroke-width: 1; fill: none; fill-opacity: 1;"/><g stroke="none" fill="#000" transform="matrix(-1.8369701987210297e-16,-1,1,-1.8369701987210297e-16,310.0512820512821,128.5)" style="stroke: none; fill: rgb(0, 0, 0); stroke-width: 1;"><path d=" M8.4,-2.1 L0,0 L8.4,2.1 Z"/></g></g><g class="composite-shape"><path class="real" d=" M57.33,142.5 L113.27,142.5 L113.27,162.5 L57.33,162.5 Z" style="stroke-width: 1; stroke: rgb(0, 0, 0); stroke-opacity: 1; fill: none; fill-opacity: 1;"/></g><g class="composite-shape"><path class="real" d=" M65.02,106.5 L127.8,106.5 L127.8,126.5 L65.02,126.5 Z" style="stroke-width: 1; stroke: rgb(0, 0, 0); stroke-opacity: 1; fill: none; fill-opacity: 1;"/></g><g class="arrow-line"><path class="connection real" stroke-dasharray="" d="  M283.05,170.07 L283.05,47.5" style="stroke: rgb(0, 0, 0); stroke-width: 1; fill: none; fill-opacity: 1;"/><g stroke="none" fill="#000" transform="matrix(3.061616997868383e-16,1,-1,3.061616997868383e-16,283.0512820512821,45.5)" style="stroke: none; fill: rgb(0, 0, 0); stroke-width: 1;"><path d=" M8.4,-2.1 L0,0 L8.4,2.1 Z"/></g></g><g/></g><g/><g/><g/></svg>
        <svg xmlns="http://www.w3.org/2000/svg" xmlns:xlink="http://www.w3.org/1999/xlink" width="700" height="568" style="width:700px;height:568px;font-family:Asana-Math, Asana;background:#FFF;"><g><g><g><g transform="matrix(1,0,0,1,78.10415649414062,35.708335876464844)"><path transform="matrix(0.015,0,0,-0.015,0,0)" d="M42 434L89 434C98 547 108 628 252 628L329 628L329 47L176 47L176 0C230 3 341 3 400 3C459 3 570 3 624 0L624 47L471 47L471 628L547 628C690 628 700 548 710 434L757 434L736 675L63 675ZM839 0L1477 0L1523 274L1476 274C1454 136 1426 47 1241 47L1089 47L1089 329L1144 329C1240 329 1250 286 1250 212L1297 212L1297 493L1250 493C1250 419 1241 376 1144 376L1089 376L1089 633L1241 633C1402 633 1428 560 1444 439L1491 439L1460 680L839 680L839 633L947 633L947 47L839 47ZM1595 0C1633 3 1690 3 1729 3C1771 3 1823 3 1864 0L1864 47L1839 47C1821 47 1804 48 1786 50C1757 53 1756 54 1756 76L1756 626L1757 626L2029 25C2038 5 2050 0 2061 0C2081 0 2089 15 2093 24L2372 639L2373 639L2373 47L2265 47L2265 0C2301 3 2394 3 2435 3C2476 3 2570 3 2606 0L2606 47L2498 47L2498 639L2606 639L2606 686L2385 686C2363 686 2352 686 2341 661L2101 132L1861 661C1850 686 1839 686 1817 686L1595 686L1595 639L1703 639L1703 76C1703 54 1702 53 1674 50C1650 47 1648 47 1620 47L1595 47ZM2685 0C2723 3 2821 3 2864 3C2907 3 3005 3 3043 0L3043 47L2935 47L2935 302L3112 302C3251 302 3367 374 3367 491C3367 601 3268 686 3102 686L2685 686L2685 639L2793 639L2793 47L2685 47ZM2929 343L2929 639L3064 639C3214 639 3214 563 3214 491C3214 420 3214 343 3063 343ZM3471 0L4109 0L4155 274L4108 274C4086 136 4058 47 3873 47L3721 47L3721 329L3776 329C3872 329 3882 286 3882 212L3929 212L3929 493L3882 493C3882 419 3873 376 3776 376L3721 376L3721 633L3873 633C4034 633 4060 560 4076 439L4123 439L4092 680L3471 680L3471 633L3579 633L3579 47L3471 47ZM4226 0C4262 3 4360 3 4402 3C4444 3 4542 3 4578 0L4578 47L4470 47L4470 325L4587 325C4601 325 4645 325 4676 291C4708 256 4708 237 4708 164C4708 98 4708 49 4778 15C4822 -7 4884 -11 4925 -11C5032 -11 5045 79 5045 95C5045 117 5031 117 5021 117C5000 117 4999 107 4998 94C4993 47 4964 25 4934 25C4874 25 4865 96 4860 138C4858 149 4850 218 4849 223C4835 293 4780 324 4737 340C4853 370 4904 435 4904 501C4904 602 4794 686 4606 686L4226 686L4226 639L4334 639L4334 47L4226 47ZM4470 361L4470 639L4588 639C4749 639 4751 561 4751 500C4751 444 4751 361 4586 361ZM5090 0C5128 1 5176 3 5207 3C5246 3 5302 3 5339 0L5339 47C5337 47 5250 47 5250 60C5250 61 5253 71 5254 72L5304 193L5572 193L5632 47L5537 47L5537 0C5575 3 5670 3 5713 3C5753 3 5841 3 5876 0L5876 47L5779 47L5523 672C5512 698 5500 698 5483 698C5455 698 5451 690 5444 672L5196 70C5190 55 5187 47 5111 47L5090 47ZM5324 240L5438 518L5552 240ZM5864 434L5911 434C5920 547 5930 628 6074 628L6151 628L6151 47L5998 47L5998 0C6052 3 6163 3 6222 3C6281 3 6392 3 6446 0L6446 47L6293 47L6293 628L6369 628C6512 628 6522 548 6532 434L6579 434L6558 675L5885 675ZM6661 639L6769 639L6769 231C6769 98 6877 -11 7084 -11C7274 -11 7359 106 7359 229L7359 610C7359 632 7360 633 7388 636C7412 639 7414 639 7442 639L7467 639L7467 686C7429 683 7372 683 7333 683C7291 683 7239 683 7198 686L7198 639L7223 639C7241 639 7258 638 7276 636C7305 633 7306 632 7306 610L7306 233C7306 85 7197 36 7088 36C6913 36 6911 167 6911 223L6911 639L7019 639L7019 686C6981 683 6883 683 6840 683C6797 683 6699 683 6661 686ZM7545 0C7581 3 7679 3 7721 3C7763 3 7861 3 7897 0L7897 47L7789 47L7789 325L7906 325C7920 325 7964 325 7995 291C8027 256 8027 237 8027 164C8027 98 8027 49 8097 15C8141 -7 8203 -11 8244 -11C8351 -11 8364 79 8364 95C8364 117 8350 117 8340 117C8319 117 8318 107 8317 94C8312 47 8283 25 8253 25C8193 25 8184 96 8179 138C8177 149 8169 218 8168 223C8154 293 8099 324 8056 340C8172 370 8223 435 8223 501C8223 602 8113 686 7925 686L7545 686L7545 639L7653 639L7653 47L7545 47ZM7789 361L7789 639L7907 639C8068 639 8070 561 8070 500C8070 444 8070 361 7905 361ZM8407 0L9045 0L9091 274L9044 274C9022 136 8994 47 8809 47L8657 47L8657 329L8712 329C8808 329 8818 286 8818 212L8865 212L8865 493L8818 493C8818 419 8809 376 8712 376L8657 376L8657 633L8809 633C8970 633 8996 560 9012 439L9059 439L9028 680L8407 680L8407 633L8515 633L8515 47L8407 47Z" stroke="rgb(0,0,0)" stroke-opacity="1" stroke-width="8" fill="rgb(0,0,0)" fill-opacity="1"></path></g></g></g></g><g><g><g><g transform="matrix(1,0,0,1,95.18753051757812,85.23958587646484)"><path transform="matrix(0.015,0,0,-0.015,0,0)" d="M39 0L470 0C667 0 817 123 817 337C817 557 667 686 469 686L39 686L39 639L147 639L147 47L39 47ZM283 47L283 639L429 639C495 639 578 620 627 550C662 499 670 431 670 338C670 229 658 176 626 131C578 63 490 47 429 47ZM920 0L1558 0L1604 274L1557 274C1535 136 1507 47 1322 47L1170 47L1170 329L1225 329C1321 329 1331 286 1331 212L1378 212L1378 493L1331 493C1331 419 1322 376 1225 376L1170 376L1170 633L1322 633C1483 633 1509 560 1525 439L1572 439L1541 680L920 680L920 633L1028 633L1028 47L920 47ZM1675 0C1713 3 1770 3 1809 3C1851 3 1903 3 1944 0L1944 47L1919 47C1901 47 1884 48 1866 50C1837 53 1836 54 1836 76L1836 599L2334 13C2344 1 2345 0 2361 0C2388 0 2388 9 2388 32L2388 610C2388 632 2389 633 2417 636C2441 639 2443 639 2471 639L2496 639L2496 686C2458 683 2401 683 2362 683C2320 683 2268 683 2227 686L2227 639L2252 639C2270 639 2287 638 2305 636C2334 633 2335 632 2335 610L2335 205L1937 673C1926 685 1925 686 1904 686L1675 686L1675 639L1783 639L1783 76C1783 54 1782 53 1754 50C1730 47 1728 47 1700 47L1675 47ZM2600 17C2600 -2 2600 -11 2618 -11C2627 -11 2629 -9 2637 -2L2683 44C2749 -5 2842 -11 2883 -11C3048 -11 3110 102 3110 203C3110 314 3029 395 2938 414L2793 445C2753 454 2697 488 2697 549C2697 592 2725 654 2825 654C2905 654 3006 620 3029 484C3033 460 3033 458 3054 458C3078 458 3078 463 3078 486L3078 669C3078 688 3078 697 3060 697C3052 697 3051 696 3040 686L2995 642C2937 688 2872 697 2824 697C2672 697 2600 601 2600 496C2600 431 2633 385 2654 363C2703 314 2737 307 2846 283C2934 264 2951 261 2973 240C2988 225 3013 199 3013 153C3013 105 2987 36 2883 36C2807 36 2655 56 2647 205C2646 223 2646 228 2624 228C2600 228 2600 222 2600 199ZM3207 0C3248 3 3346 3 3392 3C3438 3 3536 3 3577 0L3577 47L3463 47L3463 639L3577 639L3577 686C3536 683 3438 683 3392 683C3346 683 3248 683 3207 686L3207 639L3321 639L3321 47L3207 47ZM3652 434L3699 434C3708 547 3718 628 3862 628L3939 628L3939 47L3786 47L3786 0C3840 3 3951 3 4010 3C4069 3 4180 3 4234 0L4234 47L4081 47L4081 628L4157 628C4300 628 4310 548 4320 434L4367 434L4346 675L3673 675ZM4429 639L4527 639L4776 274L4776 47L4668 47L4668 0C4704 3 4802 3 4844 3C4887 3 4983 3 5021 0L5021 47L4912 47L4912 274L5147 619C5156 633 5164 633 5186 636C5203 638 5221 639 5238 639L5259 639L5259 686C5219 685 5173 683 5145 683C5106 683 5050 683 5013 686L5013 639C5036 639 5063 639 5089 629C5087 625 5087 623 5082 617L4895 342L4692 639L4777 639L4777 686C4736 683 4639 683 4594 683C4554 683 4464 683 4429 686Z" stroke="rgb(0,0,0)" stroke-opacity="1" stroke-width="8" fill="rgb(0,0,0)" fill-opacity="1"></path></g></g></g></g><g><g><g><g transform="matrix(1,0,0,1,94.62503051757812,63.06250762939453)"><path transform="matrix(0.015,0,0,-0.015,0,0)" d="M26 639L118 639L394 18C402 0 406 -8 434 -8C450 -8 463 -8 474 16L740 617C746 630 750 639 823 639L842 639L842 686C804 685 756 683 729 683C689 683 637 683 598 686L598 639C607 639 686 639 686 627C686 623 683 618 682 615L480 160L267 639L361 639L361 686C323 683 227 683 184 683C145 683 61 683 26 686ZM902 0C943 3 1041 3 1087 3C1133 3 1231 3 1272 0L1272 47L1158 47L1158 639L1272 639L1272 686C1231 683 1133 683 1087 683C1041 683 943 683 902 686L902 639L1016 639L1016 47L902 47ZM1369 17C1369 -2 1369 -11 1387 -11C1396 -11 1398 -9 1406 -2L1452 44C1518 -5 1611 -11 1652 -11C1817 -11 1879 102 1879 203C1879 314 1798 395 1707 414L1562 445C1522 454 1466 488 1466 549C1466 592 1494 654 1594 654C1674 654 1775 620 1798 484C1802 460 1802 458 1823 458C1847 458 1847 463 1847 486L1847 669C1847 688 1847 697 1829 697C1821 697 1820 696 1809 686L1764 642C1706 688 1641 697 1593 697C1441 697 1369 601 1369 496C1369 431 1402 385 1423 363C1472 314 1506 307 1615 283C1703 264 1720 261 1742 240C1757 225 1782 199 1782 153C1782 105 1756 36 1652 36C1576 36 1424 56 1416 205C1415 223 1415 228 1393 228C1369 228 1369 222 1369 199ZM2007 343C2007 138 2160 -11 2409 -11C2596 -11 2709 112 2709 227C2709 247 2702 248 2685 248C2672 248 2663 248 2662 231C2655 97 2534 36 2433 36C2355 36 2271 60 2219 121C2172 178 2160 253 2160 343C2160 399 2163 507 2226 573C2291 639 2378 650 2430 650C2538 650 2633 574 2655 447C2658 428 2659 426 2682 426C2708 426 2709 428 2709 454L2709 669C2709 688 2709 697 2691 697C2682 697 2680 695 2672 688L2606 629C2544 679 2477 697 2409 697C2160 697 2007 548 2007 343ZM2837 339C2837 132 2977 -11 3204 -11C3434 -11 3572 134 3572 339C3572 555 3427 697 3205 697C2976 697 2837 549 2837 339ZM2990 354C2990 418 2993 503 3037 571C3078 632 3145 657 3204 657C3268 657 3337 629 3377 563C3415 499 3419 422 3419 354C3419 284 3415 195 3373 126C3328 53 3258 31 3204 31C3145 31 3072 59 3031 135C2998 197 2990 268 2990 354ZM3700 17C3700 -2 3700 -11 3718 -11C3727 -11 3729 -9 3737 -2L3783 44C3849 -5 3942 -11 3983 -11C4148 -11 4210 102 4210 203C4210 314 4129 395 4038 414L3893 445C3853 454 3797 488 3797 549C3797 592 3825 654 3925 654C4005 654 4106 620 4129 484C4133 460 4133 458 4154 458C4178 458 4178 463 4178 486L4178 669C4178 688 4178 697 4160 697C4152 697 4151 696 4140 686L4095 642C4037 688 3972 697 3924 697C3772 697 3700 601 3700 496C3700 431 3733 385 3754 363C3803 314 3837 307 3946 283C4034 264 4051 261 4073 240C4088 225 4113 199 4113 153C4113 105 4087 36 3983 36C3907 36 3755 56 3747 205C3746 223 3746 228 3724 228C3700 228 3700 222 3700 199ZM4307 0C4348 3 4446 3 4492 3C4538 3 4636 3 4677 0L4677 47L4563 47L4563 639L4677 639L4677 686C4636 683 4538 683 4492 683C4446 683 4348 683 4307 686L4307 639L4421 639L4421 47L4307 47ZM4752 434L4799 434C4808 547 4818 628 4962 628L5039 628L5039 47L4886 47L4886 0C4940 3 5051 3 5110 3C5169 3 5280 3 5334 0L5334 47L5181 47L5181 628L5257 628C5400 628 5410 548 5420 434L5467 434L5446 675L4773 675ZM5529 639L5627 639L5876 274L5876 47L5768 47L5768 0C5804 3 5902 3 5944 3C5987 3 6083 3 6121 0L6121 47L6012 47L6012 274L6247 619C6256 633 6264 633 6286 636C6303 638 6321 639 6338 639L6359 639L6359 686C6319 685 6273 683 6245 683C6206 683 6150 683 6113 686L6113 639C6136 639 6163 639 6189 629C6187 625 6187 623 6182 617L5995 342L5792 639L5877 639L5877 686C5836 683 5739 683 5694 683C5654 683 5564 683 5529 686Z" stroke="rgb(0,0,0)" stroke-opacity="1" stroke-width="8" fill="rgb(0,0,0)" fill-opacity="1"></path></g></g></g></g><g><g><g><g transform="matrix(1,0,0,1,61.25,157.4583511352539)"><path transform="matrix(0.015,0,0,-0.015,0,0)" d="M42 434L89 434C98 547 108 628 252 628L329 628L329 47L176 47L176 0C230 3 341 3 400 3C459 3 570 3 624 0L624 47L471 47L471 628L547 628C690 628 700 548 710 434L757 434L736 675L63 675ZM833 0C874 3 972 3 1018 3C1064 3 1162 3 1203 0L1203 47L1089 47L1089 639L1203 639L1203 686C1162 683 1064 683 1018 683C972 683 874 683 833 686L833 639L947 639L947 47L833 47ZM1276 0C1314 3 1371 3 1410 3C1452 3 1504 3 1545 0L1545 47L1520 47C1502 47 1485 48 1467 50C1438 53 1437 54 1437 76L1437 626L1438 626L1710 25C1719 5 1731 0 1742 0C1762 0 1770 15 1774 24L2053 639L2054 639L2054 47L1946 47L1946 0C1982 3 2075 3 2116 3C2157 3 2251 3 2287 0L2287 47L2179 47L2179 639L2287 639L2287 686L2066 686C2044 686 2033 686 2022 661L1782 132L1542 661C1531 686 1520 686 1498 686L1276 686L1276 639L1384 639L1384 76C1384 54 1383 53 1355 50C1331 47 1329 47 1301 47L1276 47ZM2366 0L3004 0L3050 274L3003 274C2981 136 2953 47 2768 47L2616 47L2616 329L2671 329C2767 329 2777 286 2777 212L2824 212L2824 493L2777 493C2777 419 2768 376 2671 376L2616 376L2616 633L2768 633C2929 633 2955 560 2971 439L3018 439L2987 680L2366 680L2366 633L2474 633L2474 47L2366 47Z" stroke="rgb(0,0,0)" stroke-opacity="1" stroke-width="8" fill="rgb(0,0,0)" fill-opacity="1"></path></g></g></g></g><g><g><g><g transform="matrix(1,0,0,1,67.55209350585938,121.45833587646484)"><path transform="matrix(0.015,0,0,-0.015,0,0)" d="M64 17C64 -2 64 -11 82 -11C91 -11 93 -9 101 -2L147 44C213 -5 306 -11 347 -11C512 -11 574 102 574 203C574 314 493 395 402 414L257 445C217 454 161 488 161 549C161 592 189 654 289 654C369 654 470 620 493 484C497 460 497 458 518 458C542 458 542 463 542 486L542 669C542 688 542 697 524 697C516 697 515 696 504 686L459 642C401 688 336 697 288 697C136 697 64 601 64 496C64 431 97 385 118 363C167 314 201 307 310 283C398 264 415 261 437 240C452 225 477 199 477 153C477 105 451 36 347 36C271 36 119 56 111 205C110 223 110 228 88 228C64 228 64 222 64 199ZM677 0C715 3 813 3 856 3C899 3 997 3 1035 0L1035 47L927 47L927 302L1104 302C1243 302 1359 374 1359 491C1359 601 1260 686 1094 686L677 686L677 639L785 639L785 47L677 47ZM921 343L921 639L1056 639C1206 639 1206 563 1206 491C1206 420 1206 343 1055 343ZM1463 0L2101 0L2147 274L2100 274C2078 136 2050 47 1865 47L1713 47L1713 329L1768 329C1864 329 1874 286 1874 212L1921 212L1921 493L1874 493C1874 419 1865 376 1768 376L1713 376L1713 633L1865 633C2026 633 2052 560 2068 439L2115 439L2084 680L1463 680L1463 633L1571 633L1571 47L1463 47ZM2218 0L2856 0L2902 274L2855 274C2833 136 2805 47 2620 47L2468 47L2468 329L2523 329C2619 329 2629 286 2629 212L2676 212L2676 493L2629 493C2629 419 2620 376 2523 376L2468 376L2468 633L2620 633C2781 633 2807 560 2823 439L2870 439L2839 680L2218 680L2218 633L2326 633L2326 47L2218 47ZM2973 0L3404 0C3601 0 3751 123 3751 337C3751 557 3601 686 3403 686L2973 686L2973 639L3081 639L3081 47L2973 47ZM3217 47L3217 639L3363 639C3429 639 3512 620 3561 550C3596 499 3604 431 3604 338C3604 229 3592 176 3560 131C3512 63 3424 47 3363 47Z" stroke="rgb(0,0,0)" stroke-opacity="1" stroke-width="8" fill="rgb(0,0,0)" fill-opacity="1"></path></g></g></g></g></svg>
</svg>
