<svg xmlns="http://www.w3.org/2000/svg" xmlns:xlink="http://www.w3.org/1999/xlink" x="0" y="0" width="702" height="570" style="
        width:702px;
        height:570px;
        background: transparent;
        fill: none;
">
        
        
        <svg xmlns="http://www.w3.org/2000/svg" class="role-diagram-draw-area" style="overflow: visible;"><g class="shapes-region" style="stroke: black; fill: none;"><g class="arrow-line"><path class="connection real" stroke-dasharray="" d="  M310.05,51 L310.05,126.5" style="stroke: rgb(0, 0, 0); stroke-width: 1; fill: none; fill-opacity: 1;"/><g stroke="none" fill="#000" transform="matrix(-1.8369701987210297e-16,-1,1,-1.8369701987210297e-16,310.0512820512821,128.5)" style="stroke: none; fill: rgb(0, 0, 0); stroke-width: 1;"><path d=" M8.4,-2.1 L0,0 L8.4,2.1 Z"/></g></g><g class="composite-shape"><path class="real" d=" M57.33,142.5 L113.27,142.5 L113.27,162.5 L57.33,162.5 Z" style="stroke-width: 1; stroke: rgb(0, 0, 0); stroke-opacity: 1; fill: none; fill-opacity: 1;"/></g><g class="composite-shape"><path class="real" d=" M65.02,106.5 L127.8,106.5 L127.8,126.5 L65.02,126.5 Z" style="stroke-width: 1; stroke: rgb(0, 0, 0); stroke-opacity: 1; fill: none; fill-opacity: 1;"/></g><g class="arrow-line"><path class="connection real" stroke-dasharray="" d="  M283.05,170.07 L283.05,47.5" style="stroke: rgb(0, 0, 0); stroke-width: 1; fill: none; fill-opacity: 1;"/><g stroke="none" fill="#000" transform="matrix(3.061616997868383e-16,1,-1,3.061616997868383e-16,283.0512820512821,45.5)" style="stroke: none; fill: rgb(0, 0, 0); stroke-width: 1;"><path d=" M8.4,-2.1 L0,0 L8.4,2.1 Z"/></g></g><g/></g><g/><g/><g/></svg>
        <svg xmlns="http://www.w3.org/2000/svg" xmlns:xlink="http://www.w3.org/1999/xlink" width="700" height="568" style="width:700px;height:568px;font-family:Asana-Math, Asana;background:transparent;"><g><g><g><g transform="matrix(1,0,0,1,78.10415649414062,35.708335876464844)"><path transform="matrix(0.015,0,0,-0.015,0,0)" d="M42 434L89 434C98 547 108 628 252 628L329 628L329 47L176 47L176 0C230 3 341 3 400 3C459 3 570 3 624 0L624 47L471 47L471 628L547 628C690 628 700 548 710 434L757 434L736 675L63 675ZM839 0L1477 0L1523 274L1476 274C1454 136 1426 47 1241 47L1089 47L1089 329L1144 329C1240 329 1250 286 1250 212L1297 212L1297 493L1250 493C1250 419 1241 376 1144 376L1089 376L1089 633L1241 633C1402 633 1428 560 1444 439L1491 439L1460 680L839 680L839 633L947 633L947 47L839 47ZM1595 0C1633 3 1690 3 1729 3C1771 3 1823 3 1864 0L1864 47L1839 47C1821 47 1804 48 1786 50C1757 53 1756 54 1756 76L1756 626L1757 626L2029 25C2038 5 2050 0 2061 0C2081 0 2089 15 2093 24L2372 639L2373 639L2373 47L2265 47L2265 0C2301 3 2394 3 2435 3C2476 3 2570 3 2606 0L2606 47L2498 47L2498 639L2606 639L2606 686L2385 686C2363 686 2352 686 2341 661L2101 132L1861 661C1850 686 1839 686 1817 686L1595 686L1595 639L1703 639L1703 76C1703 54 1702 53 1674 50C1650 47 1648 47 1620 47L1595 47ZM2685 0C2723 3 2821 3 2864 3C2907 3 3005 3 3043 0L3043 47L2935 47L2935 302L3112 302C3251 302 3367 374 3367 491C3367 601 3268 686 3102 686L2685 686L2685 639L2793 639L2793 47L2685 47ZM2929 343L2929 639L3064 639C3214 639 3214 563 3214 491C3214 420 3214 343 3063 343ZM3471 0L4109 0L4155 274L4108 274C4086 136 4058 47 3873 47L3721 47L3721 329L3776 329C3872 329 3882 286 3882 212L3929 212L3929 493L3882 493C3882 419 3873 376 3776 376L3721 376L3721 633L3873 633C4034 633 4060 560 4076 439L4123 439L4092 680L3471 680L3471 633L3579 633L3579 47L3471 47ZM4226 0C4262 3 4360 3 4402 3C4444 3 4542 3 4578 0L4578 47L4470 47L4470 325L4587 325C4601 325 4645 325 4676 291C4708 256 4708 237 4708 164C4708 98 4708 49 4778 15C4822 -7 4884 -11 4925 -11C5032 -11 5045 79 5045 95C5045 117 5031 117 5021 117C5000 117 4999 107 4998 94C4993 47 4964 25 4934 25C4874 25 4865 96 4860 138C4858 149 4850 218 4849 223C4835 293 4780 324 4737 340C4853 370 4904 435 4904 501C4904 602 4794 686 4606 686L4226 686L4226 639L4334 639L4334 47L4226 47ZM4470 361L4470 639L4588 639C4749 639 4751 561 4751 500C4751 444 4751 361 4586 361ZM5090 0C5128 1 5176 3 5207 3C5246 3 5302 3 5339 0L5339 47C5337 47 5250 47 5250 60C5250 61 5253 71 5254 72L5304 193L5572 193L5632 47L5537 47L5537 0C5575 3 5670 3 5713 3C5753 3 5841 3 5876 0L5876 47L5779 47L5523 672C5512 698 5500 698 5483 698C5455 698 5451 690 5444 672L5196 70C5190 55 5187 47 5111 47L5090 47ZM5324 240L5438 518L5552 240ZM5864 434L5911 434C5920 547 5930 628 6074 628L6151 628L6151 47L5998 47L5998 0C6052 3 6163 3 6222 3C6281 3 6392 3 6446 0L6446 47L6293 47L6293 628L6369 628C6512 628 6522 548 6532 434L6579 434L6558 675L5885 675ZM6661 639L6769 639L6769 231C6769 98 6877 -11 7084 -11C7274 -11 7359 106 7359 229L7359 610C7359 632 7360 633 7388 636C7412 639 7414 639 7442 639L7467 639L7467 686C7429 683 7372 683 7333 683C7291 683 7239 683 7198 686L7198 639L7223 639C7241 639 7258 638 7276 636C7305 633 7306 632 7306 610L7306 233C7306 85 7197 36 7088 36C6913 36 6911 167 6911 223L6911 639L7019 639L7019 686C6981 683 6883 683 6840 683C6797 683 6699 683 6661 686ZM7545 0C7581 3 7679 3 7721 3C7763 3 7861 3 7897 0L7897 47L7789 47L7789 325L7906 325C7920 325 7964 325 7995 291C8027 256 8027 237 8027 164C8027 98 8027 49 8097 15C8141 -7 8203 -11 8244 -11C8351 -11 8364 79 8364 95C8364 117 8350 117 8340 117C8319 117 8318 107 8317 94C8312 47 8283 25 8253 25C8193 25 8184 96 8179 138C8177 149 8169 218 8168 223C8154 293 8099 324 8056 340C8172 370 8223 435 8223 501C8223 602 8113 686 7925 686L7545 686L7545 639L7653 639L7653 47L7545 47ZM7789 361L7789 639L7907 639C8068 639 8070 561 8070 500C8070 444 8070 361 7905 361ZM8407 0L9045 0L9091 274L9044 274C9022 136 8994 47 8809 47L8657 47L8657 329L8712 329C8808 329 8818 286 8818 212L8865 212L8865 493L8818 493C8818 419 8809 376 8712 376L8657 376L8657 633L8809 633C8970 633 8996 560 9012 439L9059 439L9028 680L8407 680L8407 633L8515 633L8515 47L8407 47Z" stroke="rgb(0,0,0)" stroke-opacity="1" stroke-width="8" fill="rgb(0,0,0)" fill-opacity="1"></path></g></g></g></g><g><g><g><g transform="matrix(1,0,0,1,95.18753051757812,85.23958587646484)"><path transform="matrix(0.015,0,0,-0.015,0,0)" d="M39 0L470 0C667 0 817 123 817 337C817 557 667 686 469 686L39 686L39 639L147 639L147 47L39 47ZM283 47L283 639L429 639C495 639 578 620 627 550C662 499 670 431 670 338C670 229 658 176 626 131C578 63 490 47 429 47ZM920 0L1558 0L1604 274L1557 274C1535 136 1507 47 1322 47L1170 47L1170 329L1225 329C1321 329 1331 286 1331 212L1378 212L1378 493L1331 493C1331 419 1322 376 1225 376L1170 376L1170 633L1322 633C1483 633 1509 560 1525 439L1572 439L1541 680L920 680L920 633L1028 633L1028 47L920 47ZM1675 0C1713 3 1770 3 1809 3C1851 3 1903 3 1944 0L1944 47L1919 47C1901 47 1884 48 1866 50C1837 53 1836 54 1836 76L1836 599L2334 13C2344 1 2345 0 2361 0C2388 0 2388 9 2388 32L2388 610C2388 632 2389 633 2417 636C2441 639 2443 639 2471 639L2496 639L2496 686C2458 683 2401 683 2362 683C2320 683 2268 683 2227 686L2227 639L2252 639C2270 639 2287 638 2305 636C2334 633 2335 632 2335 610L2335 205L1937 673C1926 685 1925 686 1904 686L1675 686L1675 639L1783 639L1783 76C1783 54 1782 53 1754 50C1730 47 1728 47 1700 47L1675 47ZM2600 17C2600 -2 2600 -11 2618 -11C2627 -11 2629 -9 2637 -2L2683 44C2749 -5 2842 -11 2883 -11C3048 -11 3110 102 3110 203C3110 314 3029 395 2938 414L2793 445C2753 454 2697 488 2697 549C2697 592 2725 654 2825 654C2905 654 3006 620 3029 484C3033 460 3033 458 3054 458C3078 458 3078 463 3078 486L3078 669C3078 688 3078 697 3060 697C3052 697 3051 696 3040 686L2995 642C2937 688 2872 697 2824 697C2672 697 2600 601 2600 496C2600 431 2633 385 2654 363C2703 314 2737 307 2846 283C2934 264 2951 261 2973 240C2988 225 3013 199 3013 153C3013 105 2987 36 2883 36C2807 36 2655 56 2647 205C2646 223 2646 228 2624 228C2600 228 2600 222 2600 199ZM3207 0C3248 3 3346 3 3392 3C3438 3 3536 3 3577 0L3577 47L3463 47L3463 639L3577 639L3577 686C3536 683 3438 683 3392 683C3346 683 3248 683 3207 686L3207 639L3321 639L3321 47L3207 47ZM3652 434L3699 434C3708 547 3718 628 3862 628L3939 628L3939 47L3786 47L3786 0C3840 3 3951 3 4010 3C4069 3 4180 3 4234 0L4234 47L4081 47L4081 628L4157 628C4300 628 4310 548 4320 434L4367 434L4346 675L3673 675ZM4429 639L4527 639L4776 274L4776 47L4668 47L4668 0C4704 3 4802 3 4844 3C4887 3 4983 3 5021 0L5021 47L4912 47L4912 274L5147 619C5156 633 5164 633 5186 636C5203 638 5221 639 5238 639L5259 639L5259 686C5219 685 5173 683 5145 683C5106 683 5050 683 5013 686L5013 639C5036 639 5063 639 5089 629C5087 625 5087 623 5082 617L4895 342L4692 639L4777 639L4777 686C4736 683 4639 683 4594 683C4554 683 4464 683 4429 686Z" stroke="rgb(0,0,0)" stroke-opacity="1" stroke-width="8" fill="rgb(0,0,0)" fill-opacity="1"></path></g></g></g></g><g><g><g><g transform="matrix(1,0,0,1,94.62503051757812,63.06250762939453)"><path transform="matrix(0.015,0,0,-0.015,0,0)" d="M26 639L118 639L394 18C402 0 406 -8 434 -8C450 -8 463 -8 474 16L740 617C746 630 750 639 823 639L842 639L842 686C804 685 756 683 729 683C689 683 637 683 598 686L598 639C607 639 686 639 686 627C686 623 683 618 682 615L480 160L267 639L361 639L361 686C323 683 227 683 184 683C145 683 61 683 26 686ZM902 0C943 3 1041 3 1087 3C1133 3 1231 3 1272 0L1272 47L1158 47L1158 639L1272 639L1272 686C1231 683 1133 683 1087 683C1041 683 943 683 902 686L902 639L1016 639L1016 47L902 47ZM1369 17C1369 -2 1369 -11 1387 -11C1396 -11 1398 -9 1406 -2L1452 44C1518 -5 1611 -11 1652 -11C1817 -11 1879 102 1879 203C1879 314 1798 395 1707 414L1562 445C1522 454 1466 488 1466 549C1466 592 1494 654 1594 654C1674 654 1775 620 1798 484C1802 460 1802 458 1823 458C1847 458 1847 463 1847 486L1847 669C1847 688 1847 697 1829 697C1821 697 1820 696 1809 686L1764 642C1706 688 1641 697 1593 697C1441 697 1369 601 1369 496C1369 431 1402 385 1423 363C1472 314 1506 307 1615 283C1703 264 1720 261 1742 240C1757 225 1782 199 1782 153C1782 105 1756 36 1652 36C1576 36 1424 56 1416 205C1415 223 1415 228 1393 228C1369 228 1369 222 1369 199ZM2007 343C2007 138 2160 -11 2409 -11C2596 -11 2709 112 2709 227C2709 247 2702 248 2685 248C2672 248 2663 248 2662 231C2655 97 2534 36 2433 36C2355 36 2271 60 2219 121C2172 178 2160 253 2160 343C2160 399 2163 507 2226 573C2291 639 2378 650 2430 650C2538 650 2633 574 2655 447C2658 428 2659 426 2682 426C2708 426 2709 428 2709 454L2709 669C2709 688 2709 697 2691 697C2682 697 2680 695 2672 688L2606 629C2544 679 2477 697 2409 697C2160 697 2007 548 2007 343ZM2837 339C2837 132 2977 -11 3204 -11C3434 -11 3572 134 3572 339C3572 555 3427 697 3205 697C2976 697 2837 549 2837 339ZM2990 354C2990 418 2993 503 3037 571C3078 632 3145 657 3204 657C3268 657 3337 629 3377 563C3415 499 3419 422 3419 354C3419 284 3415 195 3373 126C3328 53 3258 31 3204 31C3145 31 3072 59 3031 135C2998 197 2990 268 2990 354ZM3700 17C3700 -2 3700 -11 3718 -11C3727 -11 3729 -9 3737 -2L3783 44C3849 -5 3942 -11 3983 -11C4148 -11 4210 102 4210 203C4210 314 4129 395 4038 414L3893 445C3853 454 3797 488 3797 549C3797 592 3825 654 3925 654C4005 654 4106 620 4129 484C4133 460 4133 458 4154 458C4178 458 4178 463 4178 486L4178 669C4178 688 4178 697 4160 697C4152 697 4151 696 4140 686L4095 642C4037 688 3972 697 3924 697C3772 697 3700 601 3700 496C3700 431 3733 385 3754 363C3803 314 3837 307 3946 283C4034 264 4051 261 4073 240C4088 225 4113 199 4113 153C4113 105 4087 36 3983 36C3907 36 3755 56 3747 205C3746 223 3746 228 3724 228C3700 228 3700 222 3700 199ZM4307 0C4348 3 4446 3 4492 3C4538 3 4636 3 4677 0L4677 47L4563 47L4563 639L4677 639L4677 686C4636 683 4538 683 4492 683C4446 683 4348 683 4307 686L4307 639L4421 639L4421 47L4307 47ZM4752 434L4799 434C4808 547 4818 628 4962 628L5039 628L5039 47L4886 47L4886 0C4940 3 5051 3 5110 3C5169 3 5280 3 5334 0L5334 47L5181 47L5181 628L5257 628C5400 628 5410 548 5420 434L5467 434L5446 675L4773 675ZM5529 639L5627 639L5876 274L5876 47L5768 47L5768 0C5804 3 5902 3 5944 3C5987 3 6083 3 6121 0L6121 47L6012 47L6012 274L6247 619C6256 633 6264 633 6286 636C6303 638 6321 639 6338 639L6359 639L6359 686C6319 685 6273 683 6245 683C6206 683 6150 683 6113 686L6113 639C6136 639 6163 639 6189 629C6187 625 6187 623 6182 617L5995 342L5792 639L5877 639L5877 686C5836 683 5739 683 5694 683C5654 683 5564 683 5529 686Z" stroke="rgb(0,0,0)" stroke-opacity="1" stroke-width="8" fill="rgb(0,0,0)" fill-opacity="1"></path></g></g></g></g><g><g><g><g transform="matrix(1,0,0,1,61.25,157.4583511352539)"><path transform="matrix(0.015,0,0,-0.015,0,0)" d="M42 434L89 434C98 547 108 628 252 628L329 628L329 47L176 47L176 0C230 3 341 3 400 3C459 3 570 3 624 0L624 47L471 47L471 628L547 628C690 628 700 548 710 434L757 434L736 675L63 675ZM833 0C874 3 972 3 1018 3C1064 3 1162 3 1203 0L1203 47L1089 47L1089 639L1203 639L1203 686C1162 683 1064 683 1018 683C972 683 874 683 833 686L833 639L947 639L947 47L833 47ZM1276 0C1314 3 1371 3 1410 3C1452 3 1504 3 1545 0L1545 47L1520 47C1502 47 1485 48 1467 50C1438 53 1437 54 1437 76L1437 626L1438 626L1710 25C1719 5 1731 0 1742 0C1762 0 1770 15 1774 24L2053 639L2054 639L2054 47L1946 47L1946 0C1982 3 2075 3 2116 3C2157 3 2251 3 2287 0L2287 47L2179 47L2179 639L2287 639L2287 686L2066 686C2044 686 2033 686 2022 661L1782 132L1542 661C1531 686 1520 686 1498 686L1276 686L1276 639L1384 639L1384 76C1384 54 1383 53 1355 50C1331 47 1329 47 1301 47L1276 47ZM2366 0L3004 0L3050 274L3003 274C2981 136 2953 47 2768 47L2616 47L2616 329L2671 329C2767 329 2777 286 2777 212L2824 212L2824 493L2777 493C2777 419 2768 376 2671 376L2616 376L2616 633L2768 633C2929 633 2955 560 2971 439L3018 439L2987 680L2366 680L2366 633L2474 633L2474 47L2366 47Z" stroke="rgb(0,0,0)" stroke-opacity="1" stroke-width="8" fill="rgb(0,0,0)" fill-opacity="1"></path></g></g></g></g><g><g><g><g transform="matrix(1,0,0,1,67.55209350585938,121.45833587646484)"><path transform="matrix(0.015,0,0,-0.015,0,0)" d="M64 17C64 -2 64 -11 82 -11C91 -11 93 -9 101 -2L147 44C213 -5 306 -11 347 -11C512 -11 574 102 574 203C574 314 493 395 402 414L257 445C217 454 161 488 161 549C161 592 189 654 289 654C369 654 470 620 493 484C497 460 497 458 518 458C542 458 542 463 542 486L542 669C542 688 542 697 524 697C516 697 515 696 504 686L459 642C401 688 336 697 288 697C136 697 64 601 64 496C64 431 97 385 118 363C167 314 201 307 310 283C398 264 415 261 437 240C452 225 477 199 477 153C477 105 451 36 347 36C271 36 119 56 111 205C110 223 110 228 88 228C64 228 64 222 64 199ZM677 0C715 3 813 3 856 3C899 3 997 3 1035 0L1035 47L927 47L927 302L1104 302C1243 302 1359 374 1359 491C1359 601 1260 686 1094 686L677 686L677 639L785 639L785 47L677 47ZM921 343L921 639L1056 639C1206 639 1206 563 1206 491C1206 420 1206 343 1055 343ZM1463 0L2101 0L2147 274L2100 274C2078 136 2050 47 1865 47L1713 47L1713 329L1768 329C1864 329 1874 286 1874 212L1921 212L1921 493L1874 493C1874 419 1865 376 1768 376L1713 376L1713 633L1865 633C2026 633 2052 560 2068 439L2115 439L2084 680L1463 680L1463 633L1571 633L1571 47L1463 47ZM2218 0L2856 0L2902 274L2855 274C2833 136 2805 47 2620 47L2468 47L2468 329L2523 329C2619 329 2629 286 2629 212L2676 212L2676 493L2629 493C2629 419 2620 376 2523 376L2468 376L2468 633L2620 633C2781 633 2807 560 2823 439L2870 439L2839 680L2218 680L2218 633L2326 633L2326 47L2218 47ZM2973 0L3404 0C3601 0 3751 123 3751 337C3751 557 3601 686 3403 686L2973 686L2973 639L3081 639L3081 47L2973 47ZM3217 47L3217 639L3363 639C3429 639 3512 620 3561 550C3596 499 3604 431 3604 338C3604 229 3592 176 3560 131C3512 63 3424 47 3363 47Z" stroke="rgb(0,0,0)" stroke-opacity="1" stroke-width="8" fill="rgb(0,0,0)" fill-opacity="1"></path></g></g></g></g><g><g><g><g transform="matrix(1,0,0,1,94.62503051757812,220.9958511352539)"><path transform="matrix(0.0216,0,0,-0.0216,0,0)" d="M39 0C77 3 175 3 218 3C261 3 359 3 397 0L397 47L289 47L289 302L466 302C605 302 721 374 721 491C721 601 622 686 456 686L39 686L39 639L147 639L147 47L39 47ZM283 343L283 639L418 639C568 639 568 563 568 491C568 420 568 343 417 343ZM786 108C786 12 910 -6 979 -6C1059 -6 1106 35 1128 77C1128 46 1128 0 1232 0L1280 0C1300 0 1312 0 1312 24C1312 47 1299 47 1286 47C1225 48 1225 61 1225 84L1225 299C1225 388 1154 453 1005 453C948 453 826 449 826 361C826 317 861 298 888 298C919 298 951 319 951 361C951 391 932 408 929 410C957 416 989 417 1001 417C1076 417 1111 375 1111 299L1111 265C1040 262 786 253 786 108ZM903 109C903 217 1061 231 1111 234L1111 139C1111 43 1019 30 994 30C943 30 903 65 903 109ZM1350 0C1385 1 1430 3 1476 3C1514 3 1578 3 1614 0L1614 47L1527 47L1527 222C1527 292 1552 414 1652 414C1651 413 1633 397 1633 368C1633 327 1665 307 1694 307C1723 307 1755 328 1755 368C1755 421 1701 450 1649 450C1579 450 1539 400 1516 337L1516 450L1350 442L1350 395C1412 395 1419 395 1419 356L1419 47L1350 47ZM1818 108C1818 12 1942 -6 2011 -6C2091 -6 2138 35 2160 77C2160 46 2160 0 2264 0L2312 0C2332 0 2344 0 2344 24C2344 47 2331 47 2318 47C2257 48 2257 61 2257 84L2257 299C2257 388 2186 453 2037 453C1980 453 1858 449 1858 361C1858 317 1893 298 1920 298C1951 298 1983 319 1983 361C1983 391 1964 408 1961 410C1989 416 2021 417 2033 417C2108 417 2143 375 2143 299L2143 265C2072 262 1818 253 1818 108ZM1935 109C1935 217 2093 231 2143 234L2143 139C2143 43 2051 30 2026 30C1975 30 1935 65 1935 109ZM2390 0C2418 1 2478 3 2516 3C2555 3 2614 1 2642 0L2642 47L2573 47L2573 256C2573 365 2660 414 2722 414C2756 414 2778 394 2778 317L2778 47L2709 47L2709 0C2737 1 2797 3 2835 3C2874 3 2933 1 2961 0L2961 47L2892 47L2892 256C2892 365 2979 414 3041 414C3075 414 3097 394 3097 317L3097 47L3028 47L3028 0C3056 1 3116 3 3154 3C3193 3 3252 1 3280 0L3280 47L3211 47L3211 306C3211 409 3160 450 3057 450C2966 450 2914 400 2888 354C2868 447 2776 450 2738 450C2651 450 2594 405 2562 342L2562 450L2390 442L2390 395C2452 395 2459 395 2459 356L2459 47L2390 47ZM3335 225C3335 91 3435 -6 3596 -6C3754 -6 3797 100 3797 117C3797 135 3778 135 3773 135C3756 135 3754 130 3748 114C3727 66 3670 34 3605 34C3464 34 3463 167 3463 218L3765 218C3787 218 3797 218 3797 245C3797 276 3791 349 3741 399C3704 435 3651 453 3582 453C3422 453 3335 350 3335 225ZM3463 251C3465 290 3466 332 3487 365C3513 405 3553 417 3582 417C3699 417 3701 286 3702 251ZM3851 397L3933 397L3933 123C3933 16 4020 -6 4091 -6C4167 -6 4212 51 4212 124L4212 177L4165 177L4165 126C4165 58 4133 34 4105 34C4047 34 4047 98 4047 121L4047 397L4193 397L4193 444L4047 444L4047 635L4000 635C3999 535 3950 436 3851 433ZM4309 225C4309 91 4409 -6 4570 -6C4728 -6 4771 100 4771 117C4771 135 4752 135 4747 135C4730 135 4728 130 4722 114C4701 66 4644 34 4579 34C4438 34 4437 167 4437 218L4739 218C4761 218 4771 218 4771 245C4771 276 4765 349 4715 399C4678 435 4625 453 4556 453C4396 453 4309 350 4309 225ZM4437 251C4439 290 4440 332 4461 365C4487 405 4527 417 4556 417C4673 417 4675 286 4676 251ZM4841 0C4876 1 4921 3 4967 3C5005 3 5069 3 5105 0L5105 47L5018 47L5018 222C5018 292 5043 414 5143 414C5142 413 5124 397 5124 368C5124 327 5156 307 5185 307C5214 307 5246 328 5246 368C5246 421 5192 450 5140 450C5070 450 5030 400 5007 337L5007 450L4841 442L4841 395C4903 395 4910 395 4910 356L4910 47L4841 47ZM5315 22C5315 3 5315 -6 5333 -6C5340 -6 5342 -6 5363 9C5364 9 5386 24 5389 26C5435 -6 5487 -6 5507 -6C5538 -6 5692 -6 5692 140C5692 183 5672 218 5637 246C5598 275 5566 281 5488 294C5451 301 5386 312 5386 359C5386 421 5479 421 5498 421C5573 421 5611 392 5616 337C5617 322 5618 317 5639 317C5663 317 5663 322 5663 345L5663 425C5663 444 5663 453 5645 453C5641 453 5639 453 5600 434C5574 447 5539 453 5499 453C5469 453 5315 453 5315 322C5315 282 5335 255 5355 238C5395 203 5433 197 5510 183C5546 177 5621 164 5621 105C5621 30 5529 30 5507 30C5401 30 5375 103 5363 146C5358 160 5353 160 5339 160C5315 160 5315 154 5315 131ZM6161 138C6161 45 6259 -11 6369 -11C6440 -11 6507 12 6568 52C6596 36 6676 -11 6779 -11C6861 -11 6939 34 6942 118L6895 118C6891 43 6803 36 6784 36C6737 36 6688 66 6642 110C6688 157 6721 191 6767 258L6849 377C6863 397 6896 397 6949 397L6949 444C6917 442 6877 441 6850 441C6839 441 6755 442 6728 444L6728 397C6750 397 6777 397 6801 387C6745 299 6685 213 6610 141C6547 207 6472 295 6433 379C6447 391 6492 433 6520 464C6546 494 6575 535 6575 574C6575 627 6543 705 6465 705C6382 705 6285 643 6285 528C6285 469 6298 405 6328 336L6254 273C6233 255 6199 226 6192 218C6171 193 6161 166 6161 138ZM6289 174C6289 221 6303 273 6344 302C6379 236 6438 148 6528 80C6460 36 6388 36 6381 36C6298 36 6289 145 6289 174ZM6389 565C6389 648 6441 669 6466 669C6515 669 6528 604 6528 574C6528 529 6485 475 6418 415C6406 444 6389 503 6389 565ZM7429 0C7465 3 7563 3 7605 3C7647 3 7745 3 7781 0L7781 47L7673 47L7673 325L7790 325C7804 325 7848 325 7879 291C7911 256 7911 237 7911 164C7911 98 7911 49 7981 15C8025 -7 8087 -11 8128 -11C8235 -11 8248 79 8248 95C8248 117 8234 117 8224 117C8203 117 8202 107 8201 94C8196 47 8167 25 8137 25C8077 25 8068 96 8063 138C8061 149 8053 218 8052 223C8038 293 7983 324 7940 340C8056 370 8107 435 8107 501C8107 602 7997 686 7809 686L7429 686L7429 639L7537 639L7537 47L7429 47ZM7673 361L7673 639L7791 639C7952 639 7954 561 7954 500C7954 444 7954 361 7789 361ZM8284 225C8284 91 8384 -6 8545 -6C8703 -6 8746 100 8746 117C8746 135 8727 135 8722 135C8705 135 8703 130 8697 114C8676 66 8619 34 8554 34C8413 34 8412 167 8412 218L8714 218C8736 218 8746 218 8746 245C8746 276 8740 349 8690 399C8653 435 8600 453 8531 453C8371 453 8284 350 8284 225ZM8412 251C8414 290 8415 332 8436 365C8462 405 8502 417 8531 417C8648 417 8650 286 8651 251ZM8826 0C8858 1 8906 3 8949 3C8992 3 9038 1 9072 0L9072 47L9003 47L9003 694L8826 686L8826 639C8888 639 8895 639 8895 600L8895 47L8826 47ZM9130 108C9130 12 9254 -6 9323 -6C9403 -6 9450 35 9472 77C9472 46 9472 0 9576 0L9624 0C9644 0 9656 0 9656 24C9656 47 9643 47 9630 47C9569 48 9569 61 9569 84L9569 299C9569 388 9498 453 9349 453C9292 453 9170 449 9170 361C9170 317 9205 298 9232 298C9263 298 9295 319 9295 361C9295 391 9276 408 9273 410C9301 416 9333 417 9345 417C9420 417 9455 375 9455 299L9455 265C9384 262 9130 253 9130 108ZM9247 109C9247 217 9405 231 9455 234L9455 139C9455 43 9363 30 9338 30C9287 30 9247 65 9247 109ZM9678 397L9760 397L9760 123C9760 16 9847 -6 9918 -6C9994 -6 10039 51 10039 124L10039 177L9992 177L9992 126C9992 58 9960 34 9932 34C9874 34 9874 98 9874 121L9874 397L10020 397L10020 444L9874 444L9874 635L9827 635C9826 535 9777 436 9678 433ZM10182 617C10182 574 10216 539 10260 539C10302 539 10338 574 10338 617C10338 660 10302 695 10260 695C10216 695 10182 660 10182 617ZM10151 0C10182 1 10231 3 10273 3C10303 3 10354 1 10390 0L10390 47L10328 47L10328 450L10154 442L10154 395C10213 395 10220 395 10220 356L10220 47L10151 47ZM10455 218C10455 94 10543 -6 10710 -6C10878 -6 10965 95 10965 218C10965 352 10873 453 10710 453C10546 453 10455 351 10455 218ZM10583 229C10583 274 10583 325 10600 359C10619 396 10661 417 10710 417C10752 417 10794 401 10816 366C10837 332 10837 277 10837 229C10837 142 10837 34 10710 34C10583 34 10583 142 10583 229ZM11043 0C11071 1 11131 3 11169 3C11208 3 11267 1 11295 0L11295 47L11226 47L11226 256C11226 365 11312 414 11375 414C11409 414 11430 393 11430 317L11430 47L11361 47L11361 0C11389 1 11449 3 11487 3C11526 3 11585 1 11613 0L11613 47L11544 47L11544 306C11544 411 11490 450 11390 450C11294 450 11241 393 11215 342L11215 450L11043 442L11043 395C11105 395 11112 395 11112 356L11112 47L11043 47ZM11674 22C11674 3 11674 -6 11692 -6C11699 -6 11701 -6 11722 9C11723 9 11745 24 11748 26C11794 -6 11846 -6 11866 -6C11897 -6 12051 -6 12051 140C12051 183 12031 218 11996 246C11957 275 11925 281 11847 294C11810 301 11745 312 11745 359C11745 421 11838 421 11857 421C11932 421 11970 392 11975 337C11976 322 11977 317 11998 317C12022 317 12022 322 12022 345L12022 425C12022 444 12022 453 12004 453C12000 453 11998 453 11959 434C11933 447 11898 453 11858 453C11828 453 11674 453 11674 322C11674 282 11694 255 11714 238C11754 203 11792 197 11869 183C11905 177 11980 164 11980 105C11980 30 11888 30 11866 30C11760 30 11734 103 11722 146C11717 160 11712 160 11698 160C11674 160 11674 154 11674 131Z" stroke="rgb(0,0,0)" stroke-opacity="1" stroke-width="8" fill="rgb(0,0,0)" fill-opacity="1"></path></g></g></g></g><g><g><g><g transform="matrix(1,0,0,1,102.62503051757812,251.72916412353516)"><path transform="matrix(0.018,0,0,-0.018,0,0)" d="M39 0C77 3 175 3 218 3C261 3 359 3 397 0L397 47L289 47L289 302L466 302C605 302 721 374 721 491C721 601 622 686 456 686L39 686L39 639L147 639L147 47L39 47ZM283 343L283 639L418 639C568 639 568 563 568 491C568 420 568 343 417 343ZM731 0C769 1 817 3 848 3C887 3 943 3 980 0L980 47C978 47 891 47 891 60C891 61 894 71 895 72L945 193L1213 193L1273 47L1178 47L1178 0C1216 3 1311 3 1354 3C1394 3 1482 3 1517 0L1517 47L1420 47L1164 672C1153 698 1141 698 1124 698C1096 698 1092 690 1085 672L837 70C831 55 828 47 752 47L731 47ZM965 240L1079 518L1193 240ZM1598 0C1634 3 1732 3 1774 3C1816 3 1914 3 1950 0L1950 47L1842 47L1842 325L1959 325C1973 325 2017 325 2048 291C2080 256 2080 237 2080 164C2080 98 2080 49 2150 15C2194 -7 2256 -11 2297 -11C2404 -11 2417 79 2417 95C2417 117 2403 117 2393 117C2372 117 2371 107 2370 94C2365 47 2336 25 2306 25C2246 25 2237 96 2232 138C2230 149 2222 218 2221 223C2207 293 2152 324 2109 340C2225 370 2276 435 2276 501C2276 602 2166 686 1978 686L1598 686L1598 639L1706 639L1706 47L1598 47ZM1842 361L1842 639L1960 639C2121 639 2123 561 2123 500C2123 444 2123 361 1958 361ZM2462 0C2500 1 2548 3 2579 3C2618 3 2674 3 2711 0L2711 47C2709 47 2622 47 2622 60C2622 61 2625 71 2626 72L2676 193L2944 193L3004 47L2909 47L2909 0C2947 3 3042 3 3085 3C3125 3 3213 3 3248 0L3248 47L3151 47L2895 672C2884 698 2872 698 2855 698C2827 698 2823 690 2816 672L2568 70C2562 55 2559 47 2483 47L2462 47ZM2696 240L2810 518L2924 240ZM3330 0C3368 3 3425 3 3464 3C3506 3 3558 3 3599 0L3599 47L3574 47C3556 47 3539 48 3521 50C3492 53 3491 54 3491 76L3491 626L3492 626L3764 25C3773 5 3785 0 3796 0C3816 0 3824 15 3828 24L4107 639L4108 639L4108 47L4000 47L4000 0C4036 3 4129 3 4170 3C4211 3 4305 3 4341 0L4341 47L4233 47L4233 639L4341 639L4341 686L4120 686C4098 686 4087 686 4076 661L3836 132L3596 661C3585 686 3574 686 3552 686L3330 686L3330 639L3438 639L3438 76C3438 54 3437 53 3409 50C3385 47 3383 47 3355 47L3330 47ZM4420 0L5058 0L5104 274L5057 274C5035 136 5007 47 4822 47L4670 47L4670 329L4725 329C4821 329 4831 286 4831 212L4878 212L4878 493L4831 493C4831 419 4822 376 4725 376L4670 376L4670 633L4822 633C4983 633 5009 560 5025 439L5072 439L5041 680L4420 680L4420 633L4528 633L4528 47L4420 47ZM5178 434L5225 434C5234 547 5244 628 5388 628L5465 628L5465 47L5312 47L5312 0C5366 3 5477 3 5536 3C5595 3 5706 3 5760 0L5760 47L5607 47L5607 628L5683 628C5826 628 5836 548 5846 434L5893 434L5872 675L5199 675ZM5975 0L6613 0L6659 274L6612 274C6590 136 6562 47 6377 47L6225 47L6225 329L6280 329C6376 329 6386 286 6386 212L6433 212L6433 493L6386 493C6386 419 6377 376 6280 376L6225 376L6225 633L6377 633C6538 633 6564 560 6580 439L6627 439L6596 680L5975 680L5975 633L6083 633L6083 47L5975 47ZM6730 0C6766 3 6864 3 6906 3C6948 3 7046 3 7082 0L7082 47L6974 47L6974 325L7091 325C7105 325 7149 325 7180 291C7212 256 7212 237 7212 164C7212 98 7212 49 7282 15C7326 -7 7388 -11 7429 -11C7536 -11 7549 79 7549 95C7549 117 7535 117 7525 117C7504 117 7503 107 7502 94C7497 47 7468 25 7438 25C7378 25 7369 96 7364 138C7362 149 7354 218 7353 223C7339 293 7284 324 7241 340C7357 370 7408 435 7408 501C7408 602 7298 686 7110 686L6730 686L6730 639L6838 639L6838 47L6730 47ZM6974 361L6974 639L7092 639C7253 639 7255 561 7255 500C7255 444 7255 361 7090 361ZM7617 17C7617 -2 7617 -11 7635 -11C7644 -11 7646 -9 7654 -2L7700 44C7766 -5 7859 -11 7900 -11C8065 -11 8127 102 8127 203C8127 314 8046 395 7955 414L7810 445C7770 454 7714 488 7714 549C7714 592 7742 654 7842 654C7922 654 8023 620 8046 484C8050 460 8050 458 8071 458C8095 458 8095 463 8095 486L8095 669C8095 688 8095 697 8077 697C8069 697 8068 696 8057 686L8012 642C7954 688 7889 697 7841 697C7689 697 7617 601 7617 496C7617 431 7650 385 7671 363C7720 314 7754 307 7863 283C7951 264 7968 261 7990 240C8005 225 8030 199 8030 153C8030 105 8004 36 7900 36C7824 36 7672 56 7664 205C7663 223 7663 228 7641 228C7617 228 7617 222 7617 199ZM8622 138C8622 45 8720 -11 8830 -11C8901 -11 8968 12 9029 52C9057 36 9137 -11 9240 -11C9322 -11 9400 34 9403 118L9356 118C9352 43 9264 36 9245 36C9198 36 9149 66 9103 110C9149 157 9182 191 9228 258L9310 377C9324 397 9357 397 9410 397L9410 444C9378 442 9338 441 9311 441C9300 441 9216 442 9189 444L9189 397C9211 397 9238 397 9262 387C9206 299 9146 213 9071 141C9008 207 8933 295 8894 379C8908 391 8953 433 8981 464C9007 494 9036 535 9036 574C9036 627 9004 705 8926 705C8843 705 8746 643 8746 528C8746 469 8759 405 8789 336L8715 273C8694 255 8660 226 8653 218C8632 193 8622 166 8622 138ZM8750 174C8750 221 8764 273 8805 302C8840 236 8899 148 8989 80C8921 36 8849 36 8842 36C8759 36 8750 145 8750 174ZM8850 565C8850 648 8902 669 8927 669C8976 669 8989 604 8989 574C8989 529 8946 475 8879 415C8867 444 8850 503 8850 565ZM9890 0C9926 3 10024 3 10066 3C10108 3 10206 3 10242 0L10242 47L10134 47L10134 325L10251 325C10265 325 10309 325 10340 291C10372 256 10372 237 10372 164C10372 98 10372 49 10442 15C10486 -7 10548 -11 10589 -11C10696 -11 10709 79 10709 95C10709 117 10695 117 10685 117C10664 117 10663 107 10662 94C10657 47 10628 25 10598 25C10538 25 10529 96 10524 138C10522 149 10514 218 10513 223C10499 293 10444 324 10401 340C10517 370 10568 435 10568 501C10568 602 10458 686 10270 686L9890 686L9890 639L9998 639L9998 47L9890 47ZM10134 361L10134 639L10252 639C10413 639 10415 561 10415 500C10415 444 10415 361 10250 361ZM10752 0L11390 0L11436 274L11389 274C11367 136 11339 47 11154 47L11002 47L11002 329L11057 329C11153 329 11163 286 11163 212L11210 212L11210 493L11163 493C11163 419 11154 376 11057 376L11002 376L11002 633L11154 633C11315 633 11341 560 11357 439L11404 439L11373 680L10752 680L10752 633L10860 633L10860 47L10752 47ZM11507 0L12080 0L12111 274L12064 274C12056 205 12039 47 11860 47L11757 47L11757 639L11892 639L11892 686C11848 683 11739 683 11690 683C11646 683 11545 683 11507 686L11507 639L11615 639L11615 47L11507 47ZM12200 0C12238 1 12286 3 12317 3C12356 3 12412 3 12449 0L12449 47C12447 47 12360 47 12360 60C12360 61 12363 71 12364 72L12414 193L12682 193L12742 47L12647 47L12647 0C12685 3 12780 3 12823 3C12863 3 12951 3 12986 0L12986 47L12889 47L12633 672C12622 698 12610 698 12593 698C12565 698 12561 690 12554 672L12306 70C12300 55 12297 47 12221 47L12200 47ZM12434 240L12548 518L12662 240ZM12974 434L13021 434C13030 547 13040 628 13184 628L13261 628L13261 47L13108 47L13108 0C13162 3 13273 3 13332 3C13391 3 13502 3 13556 0L13556 47L13403 47L13403 628L13479 628C13622 628 13632 548 13642 434L13689 434L13668 675L12995 675ZM13765 0C13806 3 13904 3 13950 3C13996 3 14094 3 14135 0L14135 47L14021 47L14021 639L14135 639L14135 686C14094 683 13996 683 13950 683C13904 683 13806 683 13765 686L13765 639L13879 639L13879 47L13765 47ZM14232 339C14232 132 14372 -11 14599 -11C14829 -11 14967 134 14967 339C14967 555 14822 697 14600 697C14371 697 14232 549 14232 339ZM14385 354C14385 418 14388 503 14432 571C14473 632 14540 657 14599 657C14663 657 14732 629 14772 563C14810 499 14814 422 14814 354C14814 284 14810 195 14768 126C14723 53 14653 31 14599 31C14540 31 14467 59 14426 135C14393 197 14385 268 14385 354ZM15070 0C15108 3 15165 3 15204 3C15246 3 15298 3 15339 0L15339 47L15314 47C15296 47 15279 48 15261 50C15232 53 15231 54 15231 76L15231 599L15729 13C15739 1 15740 0 15756 0C15783 0 15783 9 15783 32L15783 610C15783 632 15784 633 15812 636C15836 639 15838 639 15866 639L15891 639L15891 686C15853 683 15796 683 15757 683C15715 683 15663 683 15622 686L15622 639L15647 639C15665 639 15682 638 15700 636C15729 633 15730 632 15730 610L15730 205L15332 673C15321 685 15320 686 15299 686L15070 686L15070 639L15178 639L15178 76C15178 54 15177 53 15149 50C15125 47 15123 47 15095 47L15070 47ZM15995 17C15995 -2 15995 -11 16013 -11C16022 -11 16024 -9 16032 -2L16078 44C16144 -5 16237 -11 16278 -11C16443 -11 16505 102 16505 203C16505 314 16424 395 16333 414L16188 445C16148 454 16092 488 16092 549C16092 592 16120 654 16220 654C16300 654 16401 620 16424 484C16428 460 16428 458 16449 458C16473 458 16473 463 16473 486L16473 669C16473 688 16473 697 16455 697C16447 697 16446 696 16435 686L16390 642C16332 688 16267 697 16219 697C16067 697 15995 601 15995 496C15995 431 16028 385 16049 363C16098 314 16132 307 16241 283C16329 264 16346 261 16368 240C16383 225 16408 199 16408 153C16408 105 16382 36 16278 36C16202 36 16050 56 16042 205C16041 223 16041 228 16019 228C15995 228 15995 222 15995 199Z" stroke="rgb(0,0,0)" stroke-opacity="1" stroke-width="8" fill="rgb(0,0,0)" fill-opacity="1"></path></g></g></g></g></svg>
</svg>
